<svg width="31" height="36" viewBox="0 0 31 36" fill="none" xmlns="http://www.w3.org/2000/svg">
<path d="M22.3892 3.6C20.9499 4.95703 19.6504 6.38367 18.499 7.81664C16.6127 5.17641 14.2738 2.4982 11.625 0C4.82576 6.41039 0 14.7628 0 19.8C0 28.7473 6.93971 36 15.5 36C24.0603 36 31 28.7473 31 19.8C31 16.0545 27.4032 8.32922 22.3892 3.6ZM21.0419 27.552C19.5431 28.6179 17.6949 29.25 15.6979 29.25C10.7054 29.25 6.64286 25.8933 6.64286 20.4434C6.64286 17.7286 8.32502 15.3366 11.6797 11.25C12.1592 11.8111 18.5183 20.063 18.5183 20.063L22.5753 15.3605C22.8618 15.8421 23.1227 16.3132 23.3552 16.7646C25.2477 20.4342 24.4492 25.1297 21.0419 27.552Z" fill="#253F57"/>
</svg>
