<svg width="31" height="25" viewBox="0 0 31 25" fill="none" xmlns="http://www.w3.org/2000/svg">
<path d="M15.089 6.25388L5.16707 14.4257V23.2455C5.16707 23.4739 5.25779 23.6929 5.41927 23.8544C5.58075 24.0158 5.79976 24.1066 6.02812 24.1066L12.0587 24.091C12.2863 24.0898 12.5042 23.9986 12.6647 23.8372C12.8253 23.6759 12.9154 23.4575 12.9154 23.2299V18.0792C12.9154 17.8509 13.0061 17.6319 13.1676 17.4704C13.3291 17.3089 13.5481 17.2182 13.7764 17.2182H17.2206C17.449 17.2182 17.668 17.3089 17.8295 17.4704C17.991 17.6319 18.0817 17.8509 18.0817 18.0792V23.2261C18.0813 23.3394 18.1033 23.4517 18.1464 23.5565C18.1896 23.6613 18.2529 23.7565 18.3329 23.8367C18.4129 23.917 18.5079 23.9806 18.6126 24.0241C18.7172 24.0675 18.8294 24.0899 18.9427 24.0899L24.9711 24.1066C25.1995 24.1066 25.4185 24.0158 25.58 23.8544C25.7414 23.6929 25.8321 23.4739 25.8321 23.2455V14.4198L15.9124 6.25388C15.7958 6.15987 15.6505 6.10861 15.5007 6.10861C15.3509 6.10861 15.2056 6.15987 15.089 6.25388ZM30.7616 11.8082L26.2627 8.09974V0.645784C26.2627 0.474511 26.1946 0.310254 26.0735 0.189146C25.9524 0.0680378 25.7882 0 25.6169 0H22.6032C22.432 0 22.2677 0.0680378 22.1466 0.189146C22.0255 0.310254 21.9574 0.474511 21.9574 0.645784V4.55331L17.1394 0.589278C16.677 0.208792 16.0968 0.000760596 15.498 0.000760596C14.8992 0.000760596 14.319 0.208792 13.8566 0.589278L0.234365 11.8082C0.168973 11.8622 0.114871 11.9286 0.0751508 12.0036C0.0354309 12.0785 0.0108711 12.1606 0.0028749 12.2451C-0.00512131 12.3295 0.00360275 12.4147 0.0285486 12.4958C0.0534944 12.5769 0.0941732 12.6523 0.14826 12.7176L1.52055 14.3859C1.57449 14.4515 1.64084 14.5058 1.71579 14.5457C1.79075 14.5856 1.87284 14.6104 1.95736 14.6185C2.04189 14.6267 2.1272 14.6181 2.2084 14.5932C2.28959 14.5683 2.36509 14.5277 2.43057 14.4736L15.089 4.04745C15.2056 3.95345 15.3509 3.90219 15.5007 3.90219C15.6505 3.90219 15.7958 3.95345 15.9124 4.04745L28.5714 14.4736C28.6367 14.5277 28.7121 14.5684 28.7932 14.5933C28.8743 14.6183 28.9595 14.627 29.0439 14.619C29.1284 14.611 29.2104 14.5865 29.2854 14.5467C29.3604 14.507 29.4268 14.4529 29.4808 14.3875L30.8531 12.7192C30.9071 12.6535 30.9477 12.5777 30.9723 12.4963C30.997 12.4149 31.0053 12.3293 30.9968 12.2447C30.9883 12.16 30.9631 12.0779 30.9228 12.003C30.8824 11.928 30.8277 11.8618 30.7616 11.8082Z" fill="#253F57"/>
</svg>
