<svg width="31" height="21" viewBox="0 0 31 21" fill="none" xmlns="http://www.w3.org/2000/svg">
<path d="M6.88889 5.16667H24.1111V15.5H6.88889V5.16667ZM28.4167 10.3333C28.4167 11.7601 29.5732 12.9167 31 12.9167V18.0833C31 19.5101 29.8434 20.6667 28.4167 20.6667H2.58333C1.15658 20.6667 0 19.5101 0 18.0833V12.9167C1.42675 12.9167 2.58333 11.7601 2.58333 10.3333C2.58333 8.90658 1.42675 7.75 0 7.75V2.58333C0 1.15658 1.15658 0 2.58333 0H28.4167C29.8434 0 31 1.15658 31 2.58333V7.75C29.5732 7.75 28.4167 8.90658 28.4167 10.3333ZM25.8333 4.73611C25.8333 4.02273 25.255 3.44444 24.5417 3.44444H6.45833C5.74496 3.44444 5.16667 4.02273 5.16667 4.73611V15.9306C5.16667 16.6439 5.74496 17.2222 6.45833 17.2222H24.5417C25.255 17.2222 25.8333 16.6439 25.8333 15.9306V4.73611Z" fill="#253F57"/>
</svg>
