<svg width="95" height="74" viewBox="0 0 95 74" fill="none" xmlns="http://www.w3.org/2000/svg">
<path d="M51.0759 24.267C45.292 24.3219 39.4491 25.3652 33.8917 27.3353C28.3343 29.3054 23.1749 32.1624 18.7178 35.7379C18.055 36.2708 17.2058 36.5917 16.3416 36.636C15.4774 36.6803 14.6624 36.4446 14.061 35.9765L10.4078 33.1306C10.0813 32.8768 9.82767 32.5625 9.6625 32.2072C9.49733 31.8519 9.42417 31.4632 9.44755 31.0651C9.47092 30.667 9.59034 30.268 9.7984 29.8929C10.0065 29.5177 10.2987 29.1744 10.6571 28.8842C21.5899 20.023 35.6685 14.7145 49.9735 14.0597C64.2784 13.4049 77.7122 17.4539 87.4892 25.3672C87.8096 25.6265 88.0562 25.9452 88.2138 26.3036C88.3714 26.662 88.4366 27.0525 88.4054 27.451C88.3742 27.8495 88.2473 28.2476 88.0324 28.6205C87.8176 28.9934 87.5194 29.3334 87.1563 29.6193L83.0935 32.8112C82.4275 33.3367 81.579 33.6497 80.7184 33.6874C79.8579 33.7251 79.0491 33.4846 78.4544 33.0142C71.2492 27.2515 61.5255 24.1448 51.0759 24.267V24.267Z" fill="#42A4FF"/>
<path d="M50.4266 29.9786C60.6902 29.8577 70.26 32.8521 77.4302 38.428C77.7584 38.6847 78.0123 39.0028 78.1759 39.3622C78.3395 39.7216 78.4092 40.1145 78.3807 40.516C78.3522 40.9176 78.2261 41.3192 78.0102 41.6953C77.7944 42.0715 77.4936 42.4142 77.1268 42.7016L74.0923 45.0865C73.4332 45.6048 72.5964 45.916 71.7458 45.959C70.8952 46.002 70.092 45.7738 69.4936 45.3191C63.7782 40.982 56.1261 38.7866 48.0103 39.1556C39.8945 39.5246 31.8886 42.4318 25.5338 47.3177C24.8684 47.8345 24.0263 48.1418 23.1728 48.1794C22.3193 48.2171 21.5159 47.9823 20.9201 47.5212L18.1968 45.4019C17.8674 45.1473 17.6118 44.8312 17.4461 44.4735C17.2804 44.1158 17.2082 43.7243 17.234 43.3236C17.2598 42.923 17.383 42.5218 17.596 42.1456C17.8089 41.7693 18.107 41.4261 18.4713 41.1375C22.9039 37.6551 28.0081 34.877 33.4914 32.9622C38.9748 31.0474 44.7297 30.0336 50.4266 29.9786V29.9786Z" fill="#42A4FF"/>
<path d="M47.7892 52.2571C41.7714 52.3164 35.7445 54.3036 30.9026 57.8249C30.2328 58.3224 29.398 58.6136 28.556 58.6435C27.7139 58.6734 26.9228 58.4399 26.332 57.987L25.0162 56.9608C24.6793 56.6976 24.4203 56.37 24.2565 55.9996C24.0927 55.6291 24.0278 55.2244 24.066 54.812C24.1041 54.3995 24.2446 53.9889 24.478 53.6071C24.7115 53.2253 25.0326 52.881 25.4202 52.597C31.696 47.961 39.4808 45.218 47.3577 44.8673C55.2346 44.5167 62.6797 46.5817 68.3379 50.6866C68.6763 50.9396 68.9399 51.2568 69.1113 51.6173C69.2828 51.9779 69.3584 52.3739 69.3333 52.7795C69.3081 53.1851 69.1828 53.5912 68.9653 53.9715C68.7479 54.3518 68.4432 54.6978 68.0712 54.9869L66.6007 56.1438C65.9434 56.6534 65.1149 56.9607 64.2718 57.0076C63.4286 57.0545 62.6291 56.8379 62.0241 56.3985C58.1359 53.6501 53.1265 52.1927 47.7892 52.2571Z" fill="#42A4FF"/>
<path d="M54.6949 64.9717C54.6949 67.0035 51.4508 68.6505 47.449 68.6505C43.4472 68.6505 40.2031 67.0035 40.2031 64.9717C40.2031 62.94 43.4472 61.293 47.449 61.293C51.4508 61.293 54.6949 62.94 54.6949 64.9717Z" fill="#253F57"/>
</svg>
