<svg width="567" height="402" viewBox="0 0 567 402" fill="none" xmlns="http://www.w3.org/2000/svg">
<g clip-path="url(#clip0_1878_2331)">
<path d="M280.583 68.342C290.083 68.342 297.784 60.0028 297.784 49.7159C297.784 39.429 290.083 31.0898 280.583 31.0898C271.084 31.0898 263.383 39.429 263.383 49.7159C263.383 60.0028 271.084 68.342 280.583 68.342Z" fill="#FD6584"/>
<path d="M319.08 40.893C318.595 39.1706 317.655 37.6394 316.377 36.488C315.098 35.3365 313.537 34.6151 311.884 34.4124C311.846 34.4089 311.807 34.4089 311.768 34.4124C311.722 34.3968 311.675 34.3851 311.627 34.3776C305.867 33.5684 299.464 35.5356 295.154 39.8187C293.554 41.3837 292.275 43.2943 291.399 45.4273C290.6 44.2457 289.547 43.2927 288.331 42.6509C287.116 42.0091 285.774 41.6978 284.422 41.7441C282.679 41.8689 281.013 42.5729 279.653 43.7601C278.293 44.9473 277.303 46.5599 276.82 48.3781C276.767 48.6003 276.782 48.835 276.862 49.0475C276.942 49.2599 277.083 49.4386 277.265 49.557C277.783 50.0369 278.399 50.3764 279.062 50.5476C280.486 50.8755 281.923 51.1755 283.359 51.4475C286.168 51.9777 288.992 52.4078 291.83 52.738C293.705 52.9543 295.584 53.1264 297.467 53.2543C301.358 53.5193 305.268 53.5821 309.166 53.4496C311.098 53.3798 312.954 53.3101 314.719 52.3892C316.005 51.7043 317.104 50.668 317.908 49.3826C318.664 48.1463 319.161 46.7454 319.364 45.2787C319.566 43.8119 319.469 42.3149 319.08 40.893Z" fill="#E6E6E6"/>
<path d="M283.694 68.0323C283.662 67.2518 283.541 66.4786 283.334 65.7302C282.846 64.008 281.905 62.4773 280.626 61.3261C279.346 60.1748 277.784 59.4532 276.132 59.2496C276.095 59.2461 276.058 59.2461 276.022 59.2496C275.973 59.2347 275.924 59.223 275.874 59.2148C272.686 58.792 269.452 59.152 266.411 60.2681C261.734 61.9633 257.63 65.3814 255.652 70.2645C254.853 69.0821 253.799 68.1287 252.582 67.4869C251.365 66.8451 250.022 66.5342 248.669 66.5813C246.926 66.7061 245.261 67.4101 243.9 68.5973C242.54 69.7845 241.551 71.3971 241.068 73.2153C241.018 73.4375 241.034 73.6711 241.113 73.8828C241.193 74.0946 241.333 74.2735 241.512 74.3942C242.031 74.8728 242.647 75.2121 243.309 75.3848C244.74 75.7127 246.17 76.0127 247.613 76.2847C250.421 76.8149 253.243 77.2451 256.078 77.5753C261.836 78.2447 267.631 78.4824 273.419 78.2867C275.346 78.217 277.207 78.1472 278.972 77.2265C280.257 76.5412 281.354 75.5049 282.155 74.2198C283.284 72.3976 283.825 70.2222 283.694 68.0323Z" fill="#E6E6E6"/>
<path d="M507.715 294.04C507.962 306.74 506.344 319.402 502.921 331.551C502.801 331.993 502.657 332.434 502.513 332.875H431.938C432.946 327.495 434.548 322.266 436.708 317.3C442.581 303.801 452.17 292.249 461.64 280.775C474.681 264.966 487.41 249.286 489.424 228.727C494.593 237.26 498.719 246.483 501.698 256.166C498.051 257.629 494.704 259.851 491.845 262.707C491.054 263.512 490.215 264.68 490.623 265.796C491.006 266.731 492.061 267.043 492.996 267.25C495.249 267.717 497.503 268.185 499.756 268.626C501.53 269.015 503.328 269.379 505.126 269.742C506.706 277.733 507.573 285.87 507.715 294.04Z" fill="#F2F2F2"/>
<path d="M566.998 285.629C555.683 293.079 548.491 304.605 542.618 317.507C537.507 318.768 532.789 321.453 528.93 325.295C528.115 326.099 527.276 327.267 527.707 328.384C528.067 329.318 529.146 329.63 530.08 329.837C532.31 330.305 534.587 330.772 536.817 331.213C536.601 331.759 536.385 332.33 536.17 332.875H461.375C464.77 327.916 468.53 323.263 472.618 318.961C473.505 318 474.416 317.091 475.351 316.157C484.885 306.826 495.833 299.344 507.714 294.04C526.431 285.567 546.898 282.663 566.998 285.629Z" fill="#F2F2F2"/>
<path d="M473.843 332.876H407.247C406.883 327.102 406.915 321.305 407.343 315.536C410.004 279.893 427.911 245.939 454.928 225.379C451.476 238.696 453.25 251.935 456.846 265.226C456.343 265.408 455.839 265.564 455.384 265.772C451.737 267.235 448.389 269.457 445.531 272.313C444.74 273.118 443.901 274.286 444.309 275.403C444.668 276.337 445.747 276.649 446.682 276.856C448.935 277.323 451.189 277.791 453.418 278.232C455.216 278.621 457.014 278.985 458.812 279.374C459.651 279.53 460.49 279.712 461.329 279.893C461.449 280.205 461.521 280.491 461.641 280.776C465.86 293.366 470.463 306.06 472.62 318.962C473.154 322.2 473.522 325.467 473.723 328.749C473.795 330.125 473.843 331.501 473.843 332.876Z" fill="#F2F2F2"/>
<path d="M110.887 294.04C111.134 306.74 109.516 319.402 106.092 331.551C105.973 331.993 105.829 332.434 105.685 332.875H35.1094C36.1183 327.495 37.7199 322.266 39.8801 317.3C45.7532 303.801 55.3423 292.249 64.8115 280.775C77.8526 264.966 90.5821 249.286 92.5959 228.727C97.7651 237.26 101.891 246.483 104.87 256.166C101.223 257.629 97.8754 259.851 95.0171 262.707C94.226 263.512 93.3869 264.68 93.7945 265.796C94.178 266.731 95.2328 267.043 96.1678 267.25C98.4212 267.717 100.675 268.185 102.928 268.626C104.702 269.015 106.5 269.379 108.298 269.742C109.878 277.733 110.745 285.87 110.887 294.04Z" fill="#F2F2F2"/>
<path d="M170.17 285.629C158.855 293.079 151.663 304.605 145.79 317.507C140.679 318.768 135.961 321.453 132.102 325.295C131.287 326.099 130.448 327.267 130.879 328.384C131.239 329.318 132.318 329.63 133.252 329.837C135.482 330.305 137.759 330.772 139.989 331.213C139.773 331.759 139.557 332.33 139.342 332.875H64.5469C67.9422 327.916 71.7022 323.263 75.7901 318.961C76.677 318 77.588 317.091 78.523 316.157C88.0574 306.826 99.0052 299.344 110.886 294.04C129.603 285.567 150.07 282.663 170.17 285.629Z" fill="#F2F2F2"/>
<path d="M77.0147 332.876H10.4186C10.055 327.102 10.087 321.305 10.5146 315.536C13.1756 279.893 31.083 245.939 58.1003 225.379C54.6482 238.696 56.4221 251.935 60.018 265.226C59.5147 265.408 59.0112 265.564 58.5557 265.772C54.9086 267.235 51.5613 269.457 48.703 272.313C47.9119 273.118 47.0729 274.286 47.4804 275.403C47.8399 276.337 48.9187 276.649 49.8536 276.856C52.107 277.323 54.3605 277.791 56.5899 278.232C58.3879 278.621 60.1859 278.985 61.9838 279.374C62.8228 279.53 63.6619 279.712 64.5009 279.893C64.6207 280.205 64.6927 280.491 64.8125 280.776C69.0318 293.366 73.6345 306.06 75.7921 318.962C76.3261 322.2 76.6943 325.467 76.8949 328.749C76.9667 330.125 77.0147 331.501 77.0147 332.876Z" fill="#F2F2F2"/>
<path d="M324.941 302.6L384.446 308.321L385.084 308.383V33.4364C384.871 33.276 384.659 33.1155 384.446 32.9551C372.045 23.5619 358.63 15.8451 344.499 9.97656L341.459 55.3895L341.182 59.5471L338.173 104.583L337.246 118.437L325.051 300.996L324.941 302.6Z" fill="#E6E6E6"/>
<path d="M177.787 28.3165C177.362 28.6095 176.937 28.9025 176.512 29.2094V308.384L177.787 308.258L236.648 302.601L236.538 300.996L224.344 118.438L223.416 104.584L220.408 59.5475L220.131 55.3899L216.942 7.76562C203.19 12.9273 190.048 19.8251 177.787 28.3165Z" fill="#E6E6E6"/>
<path d="M176.511 29.2093C175.654 29.8092 174.797 30.4231 173.953 31.044V312.192C173.953 319.217 177.799 325.105 182.94 326.605C183.78 326.851 184.646 326.975 185.517 326.974H376.715C377.584 326.976 378.448 326.851 379.286 326.605C381.197 326.031 382.928 324.907 384.298 323.354C386.909 320.332 388.336 316.331 388.279 312.192V35.9341C387.222 35.09 386.159 34.2529 385.084 33.4367C384.871 33.2762 384.658 33.1158 384.446 32.9554V312.192C384.447 313.097 384.348 313.999 384.149 314.878C383.241 319.029 380.246 322.07 376.715 322.07H185.517C181.252 322.07 177.786 317.641 177.786 312.192V28.3164C177.361 28.6094 176.936 28.9024 176.511 29.2093Z" fill="#E6E6E6"/>
<path d="M386.361 55.3906H175.867V59.5476H386.361V55.3906Z" fill="#E6E6E6"/>
<path d="M321.894 2.36502C320.619 2.0232 319.343 1.70231 318.055 1.40234V114.279H321.894V2.36502Z" fill="#E6E6E6"/>
<path d="M244.179 0C242.897 0.258107 241.615 0.523193 240.34 0.809203V114.279H244.179V0Z" fill="#E6E6E6"/>
<path d="M134.598 319.698C134.597 322.084 135.019 324.447 135.841 326.66C136.157 327.519 136.534 328.349 136.968 329.144C137.53 330.18 138.181 331.157 138.914 332.06C140.532 334.057 142.526 335.657 144.761 336.753C146.996 337.849 149.421 338.415 151.875 338.415H403.957C408.54 338.415 412.934 336.444 416.174 332.935C419.415 329.426 421.235 324.667 421.235 319.705C421.235 314.743 419.415 309.985 416.174 306.476C412.934 302.967 408.54 300.996 403.957 300.996H151.875C147.295 301.001 142.904 302.973 139.665 306.479C136.426 309.985 134.604 314.739 134.598 319.698Z" fill="#E6E6E6"/>
<path d="M175.868 118.437L385.082 118.438V104.581L175.868 104.581V118.437Z" fill="#E6E6E6"/>
<path d="M289.434 108.047H271.519C271.519 106.026 272.261 104.087 273.58 102.658C274.9 101.229 276.69 100.426 278.557 100.426H282.396C283.32 100.426 284.235 100.623 285.089 101.006C285.943 101.389 286.719 101.95 287.372 102.658C288.026 103.366 288.544 104.206 288.898 105.13C289.251 106.055 289.434 107.046 289.434 108.047Z" fill="#E6E6E6"/>
<path d="M0 330.383C5.59634 337.563 11.6494 344.312 18.1149 350.578H537.715C544.18 344.312 550.233 337.563 555.829 330.383H0Z" fill="#3F3D56"/>
<path d="M255.547 262.851V334.396H301.833V262.851C301.833 262.337 301.682 261.835 301.4 261.421C301.118 261.007 300.721 260.701 300.267 260.549C300.053 260.473 299.829 260.435 299.604 260.438H257.782C257.489 260.437 257.199 260.499 256.928 260.62C256.657 260.741 256.41 260.919 256.203 261.143C255.995 261.367 255.83 261.633 255.718 261.926C255.605 262.22 255.547 262.534 255.547 262.851ZM273.61 287.434C273.623 286.024 274.148 284.676 275.074 283.683C275.999 282.691 277.249 282.134 278.551 282.134C279.854 282.134 281.103 282.691 282.029 283.683C282.954 284.676 283.48 286.024 283.492 287.434V295.736C283.486 297.15 282.962 298.504 282.036 299.501C281.11 300.499 279.857 301.059 278.551 301.059C277.245 301.059 275.992 300.499 275.066 299.501C274.14 298.504 273.617 297.15 273.61 295.736V287.434Z" fill="#2F2E41"/>
<path d="M255.406 332.105V339.005C255.407 339.362 255.538 339.704 255.771 339.958C256.004 340.211 256.32 340.355 256.65 340.358H300.732C301.063 340.356 301.379 340.213 301.612 339.959C301.845 339.706 301.976 339.362 301.976 339.005V332.105H255.406Z" fill="#3F3D56"/>
<path d="M182.734 155.06V285.691C182.736 287.355 183.347 288.951 184.434 290.128C185.521 291.306 186.995 291.967 188.532 291.969H367.298C368.835 291.967 370.309 291.306 371.396 290.128C372.483 288.951 373.095 287.355 373.096 285.691V155.06C373.092 153.397 372.48 151.803 371.393 150.628C370.307 149.452 368.834 148.791 367.298 148.789H188.532C186.996 148.791 185.524 149.452 184.437 150.628C183.35 151.803 182.738 153.397 182.734 155.06Z" fill="#3F3D56"/>
<path d="M186.93 156.687V284.08C186.931 284.969 187.258 285.822 187.839 286.451C188.42 287.08 189.207 287.434 190.028 287.435H365.811C366.633 287.434 367.42 287.08 368.001 286.451C368.582 285.822 368.909 284.969 368.91 284.08V156.687C368.91 155.796 368.584 154.942 368.003 154.312C367.422 153.681 366.634 153.326 365.811 153.324H190.028C189.206 153.326 188.418 153.681 187.837 154.312C187.256 154.942 186.93 155.796 186.93 156.687Z" fill="#253F57"/>
<path d="M222.772 341.986C222.951 342.229 223.179 342.425 223.438 342.559C223.697 342.694 223.98 342.762 224.267 342.761H328.847C329.133 342.76 329.415 342.691 329.673 342.558C329.931 342.424 330.159 342.23 330.339 341.99C330.519 341.749 330.647 341.468 330.715 341.167C330.782 340.866 330.786 340.553 330.728 340.25L329.104 331.899C329.037 331.559 328.892 331.242 328.683 330.978C328.474 330.713 328.207 330.51 327.906 330.386C327.689 330.293 327.457 330.246 327.223 330.246H225.884C225.65 330.246 225.419 330.293 225.201 330.386C224.901 330.51 224.634 330.713 224.424 330.978C224.215 331.242 224.07 331.559 224.003 331.899L222.38 340.25C222.322 340.552 222.327 340.866 222.395 341.166C222.463 341.466 222.592 341.747 222.772 341.986Z" fill="#2F2E41"/>
<path d="M323.574 333.84H326.166C326.34 333.84 326.48 333.687 326.48 333.499V332.088C326.48 331.9 326.34 331.747 326.166 331.747H323.574C323.4 331.747 323.259 331.9 323.259 332.088V333.499C323.259 333.687 323.4 333.84 323.574 333.84Z" fill="#3F3D56"/>
<path d="M317.133 333.84H319.725C319.898 333.84 320.039 333.687 320.039 333.499V332.088C320.039 331.9 319.898 331.747 319.725 331.747H317.133C316.959 331.747 316.818 331.9 316.818 332.088V333.499C316.818 333.687 316.959 333.84 317.133 333.84Z" fill="#3F3D56"/>
<path d="M310.687 333.84H313.279C313.453 333.84 313.594 333.687 313.594 333.499V332.088C313.594 331.9 313.453 331.747 313.279 331.747H310.687C310.514 331.747 310.373 331.9 310.373 332.088V333.499C310.373 333.687 310.514 333.84 310.687 333.84Z" fill="#3F3D56"/>
<path d="M304.246 333.84H306.838C307.012 333.84 307.152 333.687 307.152 333.499V332.088C307.152 331.9 307.012 331.747 306.838 331.747H304.246C304.072 331.747 303.931 331.9 303.931 332.088V333.499C303.931 333.687 304.072 333.84 304.246 333.84Z" fill="#3F3D56"/>
<path d="M297.804 333.84H300.396C300.57 333.84 300.711 333.687 300.711 333.499V332.088C300.711 331.9 300.57 331.747 300.396 331.747H297.804C297.631 331.747 297.49 331.9 297.49 332.088V333.499C297.49 333.687 297.631 333.84 297.804 333.84Z" fill="#3F3D56"/>
<path d="M291.363 333.84H293.955C294.129 333.84 294.27 333.687 294.27 333.499V332.088C294.27 331.9 294.129 331.747 293.955 331.747H291.363C291.189 331.747 291.049 331.9 291.049 332.088V333.499C291.049 333.687 291.189 333.84 291.363 333.84Z" fill="#3F3D56"/>
<path d="M284.922 333.84H287.514C287.687 333.84 287.828 333.687 287.828 333.499V332.088C287.828 331.9 287.687 331.747 287.514 331.747H284.922C284.748 331.747 284.607 331.9 284.607 332.088V333.499C284.607 333.687 284.748 333.84 284.922 333.84Z" fill="#3F3D56"/>
<path d="M278.48 333.84H281.072C281.246 333.84 281.387 333.687 281.387 333.499V332.088C281.387 331.9 281.246 331.747 281.072 331.747H278.48C278.306 331.747 278.166 331.9 278.166 332.088V333.499C278.166 333.687 278.306 333.84 278.48 333.84Z" fill="#3F3D56"/>
<path d="M272.035 333.84H274.627C274.801 333.84 274.941 333.687 274.941 333.499V332.088C274.941 331.9 274.801 331.747 274.627 331.747H272.035C271.861 331.747 271.72 331.9 271.72 332.088V333.499C271.72 333.687 271.861 333.84 272.035 333.84Z" fill="#3F3D56"/>
<path d="M265.593 333.84H268.185C268.359 333.84 268.5 333.687 268.5 333.499V332.088C268.5 331.9 268.359 331.747 268.185 331.747H265.593C265.42 331.747 265.279 331.9 265.279 332.088V333.499C265.279 333.687 265.42 333.84 265.593 333.84Z" fill="#3F3D56"/>
<path d="M259.152 333.84H261.744C261.918 333.84 262.059 333.687 262.059 333.499V332.088C262.059 331.9 261.918 331.747 261.744 331.747H259.152C258.978 331.747 258.838 331.9 258.838 332.088V333.499C258.838 333.687 258.978 333.84 259.152 333.84Z" fill="#3F3D56"/>
<path d="M252.711 333.84H255.303C255.476 333.84 255.617 333.687 255.617 333.499V332.088C255.617 331.9 255.476 331.747 255.303 331.747H252.711C252.537 331.747 252.396 331.9 252.396 332.088V333.499C252.396 333.687 252.537 333.84 252.711 333.84Z" fill="#3F3D56"/>
<path d="M246.269 333.84H248.861C249.035 333.84 249.176 333.687 249.176 333.499V332.088C249.176 331.9 249.035 331.747 248.861 331.747H246.269C246.096 331.747 245.955 331.9 245.955 332.088V333.499C245.955 333.687 246.096 333.84 246.269 333.84Z" fill="#3F3D56"/>
<path d="M239.828 333.84H242.42C242.594 333.84 242.734 333.687 242.734 333.499V332.088C242.734 331.9 242.594 331.747 242.42 331.747H239.828C239.654 331.747 239.513 331.9 239.513 332.088V333.499C239.513 333.687 239.654 333.84 239.828 333.84Z" fill="#3F3D56"/>
<path d="M233.383 333.84H235.975C236.148 333.84 236.289 333.687 236.289 333.499V332.088C236.289 331.9 236.148 331.747 235.975 331.747H233.383C233.209 331.747 233.068 331.9 233.068 332.088V333.499C233.068 333.687 233.209 333.84 233.383 333.84Z" fill="#3F3D56"/>
<path d="M226.941 333.84H229.533C229.707 333.84 229.848 333.687 229.848 333.499V332.088C229.848 331.9 229.707 331.747 229.533 331.747H226.941C226.767 331.747 226.627 331.9 226.627 332.088V333.499C226.627 333.687 226.767 333.84 226.941 333.84Z" fill="#3F3D56"/>
<path d="M323.648 337.328H326.24C326.414 337.328 326.555 337.176 326.555 336.988V335.576C326.555 335.388 326.414 335.235 326.24 335.235H323.648C323.474 335.235 323.334 335.388 323.334 335.576V336.988C323.334 337.176 323.474 337.328 323.648 337.328Z" fill="#3F3D56"/>
<path d="M317.207 337.328H319.799C319.972 337.328 320.113 337.176 320.113 336.988V335.576C320.113 335.388 319.972 335.235 319.799 335.235H317.207C317.033 335.235 316.892 335.388 316.892 335.576V336.988C316.892 337.176 317.033 337.328 317.207 337.328Z" fill="#3F3D56"/>
<path d="M310.765 337.328H313.357C313.531 337.328 313.672 337.176 313.672 336.988V335.576C313.672 335.388 313.531 335.235 313.357 335.235H310.765C310.592 335.235 310.451 335.388 310.451 335.576V336.988C310.451 337.176 310.592 337.328 310.765 337.328Z" fill="#3F3D56"/>
<path d="M304.324 337.328H306.916C307.09 337.328 307.23 337.176 307.23 336.988V335.576C307.23 335.388 307.09 335.235 306.916 335.235H304.324C304.15 335.235 304.009 335.388 304.009 335.576V336.988C304.009 337.176 304.15 337.328 304.324 337.328Z" fill="#3F3D56"/>
<path d="M297.883 337.328H300.475C300.648 337.328 300.789 337.176 300.789 336.988V335.576C300.789 335.388 300.648 335.235 300.475 335.235H297.883C297.709 335.235 297.568 335.388 297.568 335.576V336.988C297.568 337.176 297.709 337.328 297.883 337.328Z" fill="#3F3D56"/>
<path d="M291.437 337.328H294.029C294.203 337.328 294.344 337.176 294.344 336.988V335.576C294.344 335.388 294.203 335.235 294.029 335.235H291.437C291.264 335.235 291.123 335.388 291.123 335.576V336.988C291.123 337.176 291.264 337.328 291.437 337.328Z" fill="#3F3D56"/>
<path d="M284.996 337.328H287.588C287.762 337.328 287.902 337.176 287.902 336.988V335.576C287.902 335.388 287.762 335.235 287.588 335.235H284.996C284.822 335.235 284.681 335.388 284.681 335.576V336.988C284.681 337.176 284.822 337.328 284.996 337.328Z" fill="#3F3D56"/>
<path d="M278.554 337.328H281.146C281.32 337.328 281.461 337.176 281.461 336.988V335.576C281.461 335.388 281.32 335.235 281.146 335.235H278.554C278.381 335.235 278.24 335.388 278.24 335.576V336.988C278.24 337.176 278.381 337.328 278.554 337.328Z" fill="#3F3D56"/>
<path d="M272.113 337.328H274.705C274.879 337.328 275.02 337.176 275.02 336.988V335.576C275.02 335.388 274.879 335.235 274.705 335.235H272.113C271.939 335.235 271.799 335.388 271.799 335.576V336.988C271.799 337.176 271.939 337.328 272.113 337.328Z" fill="#3F3D56"/>
<path d="M265.672 337.328H268.264C268.437 337.328 268.578 337.176 268.578 336.988V335.576C268.578 335.388 268.437 335.235 268.264 335.235H265.672C265.498 335.235 265.357 335.388 265.357 335.576V336.988C265.357 337.176 265.498 337.328 265.672 337.328Z" fill="#3F3D56"/>
<path d="M259.23 337.328H261.822C261.996 337.328 262.137 337.176 262.137 336.988V335.576C262.137 335.388 261.996 335.235 261.822 335.235H259.23C259.056 335.235 258.916 335.388 258.916 335.576V336.988C258.916 337.176 259.056 337.328 259.23 337.328Z" fill="#3F3D56"/>
<path d="M252.785 337.328H255.377C255.551 337.328 255.691 337.176 255.691 336.988V335.576C255.691 335.388 255.551 335.235 255.377 335.235H252.785C252.611 335.235 252.47 335.388 252.47 335.576V336.988C252.47 337.176 252.611 337.328 252.785 337.328Z" fill="#3F3D56"/>
<path d="M246.343 337.328H248.935C249.109 337.328 249.25 337.176 249.25 336.988V335.576C249.25 335.388 249.109 335.235 248.935 335.235H246.343C246.17 335.235 246.029 335.388 246.029 335.576V336.988C246.029 337.176 246.17 337.328 246.343 337.328Z" fill="#3F3D56"/>
<path d="M239.902 337.328H242.494C242.668 337.328 242.809 337.176 242.809 336.988V335.576C242.809 335.388 242.668 335.235 242.494 335.235H239.902C239.728 335.235 239.588 335.388 239.588 335.576V336.988C239.588 337.176 239.728 337.328 239.902 337.328Z" fill="#3F3D56"/>
<path d="M233.461 337.328H236.053C236.226 337.328 236.367 337.176 236.367 336.988V335.576C236.367 335.388 236.226 335.235 236.053 335.235H233.461C233.287 335.235 233.146 335.388 233.146 335.576V336.988C233.146 337.176 233.287 337.328 233.461 337.328Z" fill="#3F3D56"/>
<path d="M227.019 337.328H229.611C229.785 337.328 229.926 337.176 229.926 336.988V335.576C229.926 335.388 229.785 335.235 229.611 335.235H227.019C226.846 335.235 226.705 335.388 226.705 335.576V336.988C226.705 337.176 226.846 337.328 227.019 337.328Z" fill="#3F3D56"/>
<path d="M270.179 341.516H295.318C295.492 341.516 295.633 341.363 295.633 341.175V339.763C295.633 339.575 295.492 339.423 295.318 339.423H270.179C270.006 339.423 269.865 339.575 269.865 339.763V341.175C269.865 341.363 270.006 341.516 270.179 341.516Z" fill="#3F3D56"/>
<path d="M198.859 170.87H363.338C363.509 170.866 363.672 170.789 363.791 170.657C363.911 170.524 363.978 170.347 363.978 170.161C363.978 169.976 363.911 169.798 363.791 169.666C363.672 169.534 363.509 169.457 363.338 169.453H198.859C198.688 169.457 198.525 169.534 198.405 169.666C198.286 169.798 198.219 169.976 198.219 170.161C198.219 170.347 198.286 170.524 198.405 170.657C198.525 170.789 198.688 170.866 198.859 170.87Z" fill="#3F3D56"/>
<path d="M352.142 165.838C354.259 165.838 355.975 163.939 355.975 161.595C355.975 159.251 354.259 157.352 352.142 157.352C350.025 157.352 348.309 159.251 348.309 161.595C348.309 163.939 350.025 165.838 352.142 165.838Z" fill="#3F3D56"/>
<path d="M338.9 165.838C341.017 165.838 342.733 163.939 342.733 161.595C342.733 159.251 341.017 157.352 338.9 157.352C336.783 157.352 335.066 159.251 335.066 161.595C335.066 163.939 336.783 165.838 338.9 165.838Z" fill="#3F3D56"/>
<path d="M325.657 165.838C327.775 165.838 329.491 163.939 329.491 161.595C329.491 159.251 327.775 157.352 325.657 157.352C323.54 157.352 321.824 159.251 321.824 161.595C321.824 163.939 323.54 165.838 325.657 165.838Z" fill="#3F3D56"/>
<path d="M206.133 159.177C206.132 159.277 206.15 159.376 206.185 159.469C206.22 159.562 206.272 159.647 206.337 159.718C206.402 159.789 206.48 159.846 206.565 159.885C206.651 159.923 206.742 159.944 206.835 159.944H216.24C216.426 159.939 216.603 159.856 216.733 159.712C216.863 159.568 216.936 159.375 216.936 159.173C216.936 158.972 216.863 158.778 216.733 158.634C216.603 158.49 216.426 158.407 216.24 158.402H206.835C206.647 158.405 206.468 158.488 206.336 158.633C206.205 158.778 206.132 158.973 206.133 159.177Z" fill="#3F3D56"/>
<path d="M206.133 162.071C206.132 162.172 206.15 162.271 206.185 162.364C206.22 162.457 206.272 162.541 206.337 162.612C206.402 162.684 206.48 162.74 206.565 162.779C206.651 162.818 206.742 162.838 206.835 162.839H216.24C216.426 162.834 216.603 162.751 216.734 162.607C216.864 162.463 216.937 162.269 216.937 162.068C216.937 161.866 216.864 161.673 216.734 161.529C216.603 161.384 216.426 161.301 216.24 161.297H206.835C206.647 161.299 206.468 161.382 206.336 161.527C206.205 161.672 206.132 161.868 206.133 162.071Z" fill="#3F3D56"/>
<path d="M206.133 164.959C206.132 165.162 206.205 165.358 206.336 165.503C206.468 165.648 206.647 165.731 206.835 165.733H216.24C216.426 165.728 216.603 165.645 216.733 165.501C216.863 165.357 216.936 165.164 216.936 164.962C216.936 164.761 216.863 164.567 216.733 164.423C216.603 164.279 216.426 164.196 216.24 164.191H206.835C206.742 164.192 206.651 164.212 206.565 164.251C206.48 164.29 206.402 164.346 206.337 164.418C206.272 164.489 206.22 164.573 206.185 164.666C206.15 164.759 206.132 164.858 206.133 164.959Z" fill="#3F3D56"/>
<path d="M209.04 187.332H205.66C204.635 187.332 203.805 188.231 203.805 189.341C203.805 190.451 204.635 191.35 205.66 191.35H209.04C210.064 191.35 210.895 190.451 210.895 189.341C210.895 188.231 210.064 187.332 209.04 187.332Z" fill="#E6E6E6"/>
<path d="M247.692 187.332H244.312C243.288 187.332 242.457 188.231 242.457 189.341C242.457 190.451 243.288 191.35 244.312 191.35H247.692C248.717 191.35 249.547 190.451 249.547 189.341C249.547 188.231 248.717 187.332 247.692 187.332Z" fill="#E6E6E6"/>
<path d="M258.641 187.332H255.262C254.237 187.332 253.406 188.231 253.406 189.341C253.406 190.451 254.237 191.35 255.262 191.35H258.641C259.666 191.35 260.496 190.451 260.496 189.341C260.496 188.231 259.666 187.332 258.641 187.332Z" fill="#E6E6E6"/>
<path d="M237.176 186.996H216.172C215.147 186.996 214.316 187.896 214.316 189.005C214.316 190.115 215.147 191.014 216.172 191.014H237.176C238.201 191.014 239.032 190.115 239.032 189.005C239.032 187.896 238.201 186.996 237.176 186.996Z" fill="#E6E6E6"/>
<path d="M288.711 186.996H267.707C266.682 186.996 265.852 187.896 265.852 189.005C265.852 190.115 266.682 191.014 267.707 191.014H288.711C289.736 191.014 290.567 190.115 290.567 189.005C290.567 187.896 289.736 186.996 288.711 186.996Z" fill="#E6E6E6"/>
<path d="M219.344 196.402H215.965C214.94 196.402 214.109 197.302 214.109 198.411C214.109 199.521 214.94 200.42 215.965 200.42H219.344C220.369 200.42 221.199 199.521 221.199 198.411C221.199 197.302 220.369 196.402 219.344 196.402Z" fill="#E6E6E6"/>
<path d="M257.997 196.402H254.617C253.592 196.402 252.762 197.302 252.762 198.411C252.762 199.521 253.592 200.42 254.617 200.42H257.997C259.021 200.42 259.852 199.521 259.852 198.411C259.852 197.302 259.021 196.402 257.997 196.402Z" fill="#E6E6E6"/>
<path d="M268.95 196.402H265.57C264.545 196.402 263.715 197.302 263.715 198.411C263.715 199.521 264.545 200.42 265.57 200.42H268.95C269.974 200.42 270.805 199.521 270.805 198.411C270.805 197.302 269.974 196.402 268.95 196.402Z" fill="#E6E6E6"/>
<path d="M247.485 196.066H226.48C225.456 196.066 224.625 196.966 224.625 198.075C224.625 199.185 225.456 200.084 226.48 200.084H247.485C248.51 200.084 249.34 199.185 249.34 198.075C249.34 196.966 248.51 196.066 247.485 196.066Z" fill="#E6E6E6"/>
<path d="M299.02 196.066H278.015C276.991 196.066 276.16 196.966 276.16 198.075C276.16 199.185 276.991 200.084 278.015 200.084H299.02C300.045 200.084 300.875 199.185 300.875 198.075C300.875 196.966 300.045 196.066 299.02 196.066Z" fill="#E6E6E6"/>
<path d="M229.653 205.469H226.273C225.249 205.469 224.418 206.368 224.418 207.478C224.418 208.587 225.249 209.487 226.273 209.487H229.653C230.677 209.487 231.508 208.587 231.508 207.478C231.508 206.368 230.677 205.469 229.653 205.469Z" fill="#E6E6E6"/>
<path d="M268.305 205.469H264.926C263.901 205.469 263.07 206.368 263.07 207.478C263.07 208.587 263.901 209.487 264.926 209.487H268.305C269.33 209.487 270.16 208.587 270.16 207.478C270.16 206.368 269.33 205.469 268.305 205.469Z" fill="#E6E6E6"/>
<path d="M279.254 205.469H275.875C274.85 205.469 274.02 206.368 274.02 207.478C274.02 208.587 274.85 209.487 275.875 209.487H279.254C280.279 209.487 281.11 208.587 281.11 207.478C281.11 206.368 280.279 205.469 279.254 205.469Z" fill="#E6E6E6"/>
<path d="M257.79 205.133H236.785C235.76 205.133 234.93 206.032 234.93 207.142C234.93 208.251 235.76 209.151 236.785 209.151H257.79C258.814 209.151 259.645 208.251 259.645 207.142C259.645 206.032 258.814 205.133 257.79 205.133Z" fill="#E6E6E6"/>
<path d="M309.329 205.133H288.324C287.299 205.133 286.469 206.032 286.469 207.142C286.469 208.251 287.299 209.151 288.324 209.151H309.329C310.353 209.151 311.184 208.251 311.184 207.142C311.184 206.032 310.353 205.133 309.329 205.133Z" fill="#E6E6E6"/>
<path d="M239.961 214.539H236.582C235.557 214.539 234.727 215.439 234.727 216.548C234.727 217.658 235.557 218.557 236.582 218.557H239.961C240.986 218.557 241.817 217.658 241.817 216.548C241.817 215.439 240.986 214.539 239.961 214.539Z" fill="#E6E6E6"/>
<path d="M278.61 214.539H275.23C274.206 214.539 273.375 215.439 273.375 216.548C273.375 217.658 274.206 218.557 275.23 218.557H278.61C279.634 218.557 280.465 217.658 280.465 216.548C280.465 215.439 279.634 214.539 278.61 214.539Z" fill="#E6E6E6"/>
<path d="M289.563 214.539H286.183C285.159 214.539 284.328 215.439 284.328 216.548C284.328 217.658 285.159 218.557 286.183 218.557H289.563C290.588 218.557 291.418 217.658 291.418 216.548C291.418 215.439 290.588 214.539 289.563 214.539Z" fill="#E6E6E6"/>
<path d="M268.098 214.203H247.094C246.069 214.203 245.238 215.103 245.238 216.212C245.238 217.322 246.069 218.221 247.094 218.221H268.098C269.123 218.221 269.953 217.322 269.953 216.212C269.953 215.103 269.123 214.203 268.098 214.203Z" fill="#E6E6E6"/>
<path d="M247.692 250.598H244.312C243.288 250.598 242.457 251.497 242.457 252.607C242.457 253.716 243.288 254.616 244.312 254.616H247.692C248.717 254.616 249.547 253.716 249.547 252.607C249.547 251.497 248.717 250.598 247.692 250.598Z" fill="#E6E6E6"/>
<path d="M258.641 250.598H255.262C254.237 250.598 253.406 251.497 253.406 252.607C253.406 253.716 254.237 254.616 255.262 254.616H258.641C259.666 254.616 260.496 253.716 260.496 252.607C260.496 251.497 259.666 250.598 258.641 250.598Z" fill="#E6E6E6"/>
<path d="M288.711 250.934H267.707C266.682 250.934 265.852 251.833 265.852 252.943C265.852 254.052 266.682 254.952 267.707 254.952H288.711C289.736 254.952 290.567 254.052 290.567 252.943C290.567 251.833 289.736 250.934 288.711 250.934Z" fill="#E6E6E6"/>
<path d="M209.04 250.598H205.66C204.635 250.598 203.805 251.497 203.805 252.607C203.805 253.716 204.635 254.616 205.66 254.616H209.04C210.064 254.616 210.895 253.716 210.895 252.607C210.895 251.497 210.064 250.598 209.04 250.598Z" fill="#E6E6E6"/>
<path d="M237.176 250.934H216.172C215.147 250.934 214.316 251.833 214.316 252.943C214.316 254.052 215.147 254.952 216.172 254.952H237.176C238.201 254.952 239.032 254.052 239.032 252.943C239.032 251.833 238.201 250.934 237.176 250.934Z" fill="#E6E6E6"/>
<path d="M219.344 241.531H215.965C214.94 241.531 214.109 242.431 214.109 243.54C214.109 244.65 214.94 245.549 215.965 245.549H219.344C220.369 245.549 221.199 244.65 221.199 243.54C221.199 242.431 220.369 241.531 219.344 241.531Z" fill="#E6E6E6"/>
<path d="M257.997 241.531H254.617C253.592 241.531 252.762 242.431 252.762 243.54C252.762 244.65 253.592 245.549 254.617 245.549H257.997C259.021 245.549 259.852 244.65 259.852 243.54C259.852 242.431 259.021 241.531 257.997 241.531Z" fill="#E6E6E6"/>
<path d="M268.95 241.531H265.57C264.545 241.531 263.715 242.431 263.715 243.54C263.715 244.65 264.545 245.549 265.57 245.549H268.95C269.974 245.549 270.805 244.65 270.805 243.54C270.805 242.431 269.974 241.531 268.95 241.531Z" fill="#E6E6E6"/>
<path d="M247.485 241.867H226.48C225.456 241.867 224.625 242.767 224.625 243.876C224.625 244.986 225.456 245.885 226.48 245.885H247.485C248.51 245.885 249.34 244.986 249.34 243.876C249.34 242.767 248.51 241.867 247.485 241.867Z" fill="#E6E6E6"/>
<path d="M229.653 232.461H226.273C225.249 232.461 224.418 233.36 224.418 234.47C224.418 235.58 225.249 236.479 226.273 236.479H229.653C230.677 236.479 231.508 235.58 231.508 234.47C231.508 233.36 230.677 232.461 229.653 232.461Z" fill="#E6E6E6"/>
<path d="M268.305 232.461H264.926C263.901 232.461 263.07 233.36 263.07 234.47C263.07 235.58 263.901 236.479 264.926 236.479H268.305C269.33 236.479 270.16 235.58 270.16 234.47C270.16 233.36 269.33 232.461 268.305 232.461Z" fill="#E6E6E6"/>
<path d="M279.254 232.461H275.875C274.85 232.461 274.02 233.36 274.02 234.47C274.02 235.58 274.85 236.479 275.875 236.479H279.254C280.279 236.479 281.11 235.58 281.11 234.47C281.11 233.36 280.279 232.461 279.254 232.461Z" fill="#E6E6E6"/>
<path d="M257.79 232.797H236.785C235.76 232.797 234.93 233.696 234.93 234.806C234.93 235.915 235.76 236.815 236.785 236.815H257.79C258.814 236.815 259.645 235.915 259.645 234.806C259.645 233.696 258.814 232.797 257.79 232.797Z" fill="#E6E6E6"/>
<path d="M239.961 223.395H236.582C235.557 223.395 234.727 224.294 234.727 225.404C234.727 226.513 235.557 227.413 236.582 227.413H239.961C240.986 227.413 241.817 226.513 241.817 225.404C241.817 224.294 240.986 223.395 239.961 223.395Z" fill="#E6E6E6"/>
<path d="M278.61 223.395H275.23C274.206 223.395 273.375 224.294 273.375 225.404C273.375 226.513 274.206 227.413 275.23 227.413H278.61C279.634 227.413 280.465 226.513 280.465 225.404C280.465 224.294 279.634 223.395 278.61 223.395Z" fill="#E6E6E6"/>
<path d="M289.563 223.395H286.183C285.159 223.395 284.328 224.294 284.328 225.404C284.328 226.513 285.159 227.413 286.183 227.413H289.563C290.588 227.413 291.418 226.513 291.418 225.404C291.418 224.294 290.588 223.395 289.563 223.395Z" fill="#E6E6E6"/>
<path d="M268.098 223.727H247.094C246.069 223.727 245.238 224.626 245.238 225.736C245.238 226.845 246.069 227.745 247.094 227.745H268.098C269.123 227.745 269.953 226.845 269.953 225.736C269.953 224.626 269.123 223.727 268.098 223.727Z" fill="#E6E6E6"/>
<path d="M225.414 380.849C225.272 380.926 225.131 381.003 224.989 381.072C224.094 381.554 223.192 382.028 222.283 382.495C219.565 383.898 216.812 385.23 214.025 386.493C206.691 389.814 199.166 392.617 191.497 394.885C190.209 386.186 188.959 365.67 187.761 350.581C187.535 347.742 187.31 345.098 187.084 342.761C186.87 339.693 186.463 336.644 185.867 333.636C185.808 333.401 185.724 333.174 185.615 332.96C185.738 334.167 185.867 337.766 185.989 342.761C186.053 345.098 186.111 347.742 186.176 350.581C186.479 365.105 186.794 384.867 187.11 396.119C186.214 396.356 185.313 396.594 184.411 396.817C183.844 396.963 183.271 397.103 182.697 397.235C182.001 397.403 181.306 397.57 180.61 397.724C179.882 397.891 179.154 398.052 178.426 398.205C166.53 400.736 154.435 402.006 142.312 402C141.507 402 140.708 401.993 139.903 401.986C139.658 401.986 139.413 401.979 139.162 401.972C138.453 401.958 137.719 401.944 136.972 401.923C122.645 401.494 108.413 399.273 94.5576 395.303L95.1181 350.581L95.2147 342.761L95.2533 339.796C94.9342 340.75 94.7433 341.748 94.6864 342.761C94.461 344.665 94.2291 347.365 93.9972 350.581C93.1146 362.97 92.2063 382.956 91.2657 394.326C80.1275 390.894 71.9848 387.762 61.8064 382.251C61.4134 382.042 61.0141 381.826 60.6211 381.609C60.692 381.072 60.7693 380.535 60.8401 379.984C61.9932 371.306 60.634 360.012 61.9095 350.581C62.8822 343.305 63.8872 336.315 64.8986 330.386C66.1226 323.249 67.3658 317.641 68.5963 314.913C70.0135 311.767 71.4308 308.67 72.8029 305.705C73.3956 304.428 73.9776 303.175 74.5487 301.945C74.8579 301.282 75.1672 300.627 75.4699 299.985C76.8485 297.062 78.1498 294.362 79.3416 291.97C80.179 290.288 80.9521 288.768 81.6607 287.435C82.4917 285.866 83.2261 284.568 83.8317 283.585C88.3044 276.243 94.9594 270.776 102.694 268.091L102.887 268.035L103.074 268.119L103.286 268.224L115.565 263.361L121.047 249.068L149.205 247.191L153.753 250.937L156.079 252.856L158.559 254.9L163.12 258.66L164.415 259.092L166.341 259.734L179.515 264.115L179.65 264.052L179.843 264.108C186.882 266.548 193.043 271.302 197.469 277.711C197.907 278.325 198.313 278.959 198.706 279.601C199.775 281.317 201.218 284.031 202.919 287.435C203.621 288.837 204.362 290.358 205.141 291.97C205.611 292.939 209.67 306.654 213.619 320.661C217.31 333.776 220.905 347.149 221.375 350.581C221.459 351.216 221.549 351.857 221.633 352.492C222.167 356.461 222.696 360.459 223.204 364.358C223.958 370.141 224.693 375.722 225.395 380.71C225.401 380.758 225.408 380.8 225.414 380.849Z" fill="#3F3D56"/>
<path opacity="0.2" d="M195.573 330.352L190.099 307.477L185.266 327.215L195.573 330.352Z" fill="black"/>
<path d="M10.197 330.087C10.4808 330.982 11.0192 331.756 11.7349 332.299C12.4505 332.842 13.3066 333.125 14.1802 333.108L31.2462 332.633C32.1262 332.614 32.9771 332.288 33.6715 331.702C34.366 331.117 34.8668 330.303 35.0991 329.384L37.5141 301.42C38.371 301.84 39.3037 302.048 40.2442 302.027C41.8944 301.982 43.4605 301.229 44.598 299.934C45.7355 298.639 46.3513 296.907 46.3099 295.121C46.2685 293.334 45.5732 291.638 44.3771 290.406C43.181 289.174 41.582 288.507 39.9319 288.552C39.556 288.551 39.181 288.593 38.8134 288.678C38.4136 288.21 37.9277 287.837 37.3869 287.585C36.8461 287.332 36.2625 287.205 35.6735 287.211L9.42201 287.945C9.20424 287.954 8.98758 287.983 8.77446 288.032C8.19877 288.148 7.65275 288.397 7.17314 288.761C6.69354 289.125 6.29147 289.596 5.99403 290.142C5.69658 290.688 5.51066 291.297 5.44875 291.928C5.38685 292.558 5.45042 293.196 5.63516 293.798L10.197 330.087ZM38.0094 299.521L39.7279 292.857C39.9234 292.087 39.9279 291.275 39.741 290.503C39.8244 290.503 39.898 290.46 39.9813 290.46C41.1597 290.433 42.2996 290.914 43.1511 291.796C44.0026 292.679 44.4963 293.891 44.5239 295.167C44.5515 296.443 44.1108 297.678 43.2983 298.603C42.4858 299.527 41.3679 300.065 40.1898 300.099C39.428 300.124 38.6742 299.925 38.0094 299.521Z" fill="#2F2E41"/>
<path d="M8.77344 288.033C9.33272 291.496 15.6207 293.93 23.1815 293.507C30.1342 293.16 35.8191 290.517 36.8606 287.384C36.4752 287.26 36.0744 287.202 35.6725 287.212L9.42098 287.946C9.20322 287.955 8.98656 287.984 8.77344 288.033Z" fill="#3F3D56"/>
<path d="M24.5677 314.722C24.6022 314.713 24.6351 314.697 24.6649 314.676L28.3711 312.049C28.4159 312.018 28.4527 311.974 28.4782 311.923C28.5037 311.873 28.517 311.816 28.5171 311.758C28.5171 311.7 28.5038 311.643 28.4783 311.592C28.4529 311.541 28.4161 311.498 28.3713 311.466L24.5191 308.734C24.4837 308.708 24.4441 308.691 24.4025 308.682C24.3609 308.673 24.3181 308.674 24.2766 308.683C24.235 308.692 24.1956 308.71 24.1605 308.736C24.1255 308.762 24.0955 308.795 24.0722 308.833C24.049 308.872 24.033 308.915 24.0251 308.96C24.0173 309.005 24.0177 309.051 24.0264 309.096C24.0351 309.141 24.052 309.184 24.076 309.222C24.0999 309.259 24.1306 309.292 24.1661 309.317L27.6068 311.757L24.3123 314.093C24.2485 314.138 24.2016 314.206 24.1799 314.285C24.1581 314.364 24.163 314.449 24.1937 314.525C24.2243 314.6 24.2787 314.661 24.3472 314.698C24.4156 314.734 24.4938 314.743 24.5677 314.722Z" fill="#00B0FF"/>
<path d="M18.7167 315.014C18.7789 314.997 18.835 314.961 18.8778 314.909C18.9205 314.857 18.948 314.793 18.9568 314.724C18.9655 314.655 18.955 314.585 18.9267 314.523C18.8984 314.46 18.8536 314.408 18.7979 314.374L15.3817 312.253L18.6836 309.597C18.7175 309.57 18.7462 309.535 18.7679 309.496C18.7896 309.457 18.8039 309.413 18.8101 309.368C18.8162 309.323 18.8141 309.277 18.8038 309.232C18.7935 309.188 18.7752 309.146 18.75 309.109C18.7248 309.073 18.6931 309.042 18.6569 309.018C18.6206 308.995 18.5804 308.979 18.5386 308.972C18.4968 308.966 18.4541 308.968 18.4131 308.979C18.3722 308.99 18.3336 309.01 18.2997 309.038L14.6028 312.011C14.5599 312.046 14.5255 312.091 14.5029 312.144C14.4803 312.196 14.4701 312.254 14.4732 312.312C14.4764 312.369 14.4928 312.425 14.5209 312.475C14.5491 312.524 14.5881 312.565 14.6345 312.593L18.4773 314.979C18.5498 315.024 18.6357 315.037 18.7167 315.014Z" fill="#00B0FF"/>
<path d="M24.2012 317.024C24.2324 317.015 24.2621 317.002 24.2895 316.983C24.3256 316.959 24.3571 316.928 24.3821 316.891C24.4071 316.854 24.4252 316.812 24.4352 316.768C24.4452 316.723 24.447 316.677 24.4405 316.632C24.434 316.587 24.4194 316.543 24.3974 316.504L19.1436 307.15C19.0989 307.072 19.0273 307.016 18.9445 306.994C18.8616 306.972 18.7742 306.987 18.7015 307.035C18.6287 307.083 18.5764 307.161 18.5561 307.25C18.5359 307.34 18.5492 307.435 18.5932 307.514L23.8469 316.867C23.8828 316.931 23.9365 316.98 24.0003 317.008C24.064 317.037 24.1345 317.042 24.2012 317.024Z" fill="#00B0FF"/>
<path d="M505.793 381.609C505.4 381.826 505.001 382.042 504.608 382.251C494.429 387.762 486.287 390.894 475.148 394.326C474.208 382.956 473.3 362.97 472.417 350.581C472.185 347.365 471.953 344.665 471.728 342.761C471.671 341.748 471.48 340.75 471.161 339.796L471.199 342.761L471.296 350.581L471.857 395.303C458.001 399.273 443.769 401.494 429.442 401.923C428.695 401.944 427.961 401.958 427.252 401.972C427.001 401.979 426.756 401.986 426.511 401.986C425.706 401.993 424.907 402 424.102 402C409.004 402.012 393.962 400.037 379.304 396.119C379.62 384.867 379.936 365.105 380.238 350.581C380.303 347.742 380.361 345.098 380.425 342.761C380.547 337.766 380.676 334.167 380.799 332.96C380.69 333.174 380.606 333.401 380.547 333.636C379.951 336.644 379.544 339.693 379.33 342.761C379.104 345.098 378.879 347.742 378.654 350.581C377.455 365.67 376.206 386.186 374.917 394.885C367.248 392.617 359.723 389.814 352.389 386.493C348.524 384.749 344.728 382.867 341 380.849C341.709 375.826 342.449 370.197 343.21 364.358C343.802 359.831 344.414 355.178 345.039 350.581C346.005 343.479 378.834 266.794 386.571 264.108L386.764 264.052L386.899 264.115L400.073 259.734L401.999 259.092L403.294 258.66L407.855 254.9L410.335 252.856L412.661 250.937L417.209 247.191L445.367 249.068L450.849 263.361L463.128 268.224L463.34 268.119L463.527 268.035L463.72 268.091C471.455 270.776 478.11 276.243 482.582 283.585C483.188 284.568 483.922 285.866 484.753 287.435C485.462 288.768 486.235 290.288 487.073 291.97C488.264 294.362 489.566 297.062 490.944 299.985C491.247 300.627 491.556 301.282 491.865 301.945C492.439 303.173 493.021 304.426 493.611 305.705C494.983 308.67 496.401 311.767 497.818 314.913C499.048 317.641 500.292 323.249 501.516 330.386C502.527 336.315 503.532 343.305 504.505 350.581C505.78 360.012 504.421 371.306 505.574 379.984C505.645 380.535 505.722 381.072 505.793 381.609Z" fill="#3F3D56"/>
<path d="M423.21 242.059C441.297 242.059 455.959 226.181 455.959 206.596C455.959 187.01 441.297 171.133 423.21 171.133C405.123 171.133 390.461 187.01 390.461 206.596C390.461 226.181 405.123 242.059 423.21 242.059Z" fill="#FFB6B6"/>
<path opacity="0.2" d="M370.84 330.352L376.314 307.477L381.147 327.215L370.84 330.352Z" fill="black"/>
<path d="M516.5 315.45C514.542 344.665 516.571 357.529 505.761 381.616C495.926 386.829 485.681 391.083 475.149 394.326C474.054 394.661 472.956 394.987 471.857 395.303C458.002 399.273 443.769 401.494 429.443 401.923C428.696 401.944 427.961 401.958 427.253 401.972C427.001 401.979 426.757 401.986 426.512 401.986C425.707 401.993 424.908 402 424.102 402C409.005 402.012 393.962 400.037 379.305 396.119C377.836 395.728 376.374 395.317 374.918 394.884C367.249 392.617 359.724 389.814 352.39 386.492C348.525 384.748 344.728 382.867 341 380.849C340.157 380.388 339.313 379.928 338.482 379.454C334.211 371.32 331.782 361.428 331.73 349.541C334.687 329.06 509.968 297.787 516.5 315.45Z" fill="#2F2E41"/>
<path opacity="0.2" d="M516.494 320.451C516.594 318.643 516.706 316.775 516.836 314.829C510.304 297.166 335.023 328.439 332.066 348.92C332.075 350.798 332.149 352.62 332.273 354.399C339.434 334.184 505.953 304.462 516.494 320.451Z" fill="black"/>
<path d="M327.373 316.826L341.76 309.036L329.771 273.981L326.611 256.303C326.201 254.007 325.241 251.867 323.827 250.098C322.414 248.328 320.596 246.992 318.556 246.222C316.516 245.452 314.325 245.275 312.203 245.709C310.08 246.142 308.099 247.172 306.459 248.694C304.028 250.951 302.502 254.141 302.203 257.592C301.903 261.044 302.853 264.486 304.853 267.193L316.582 283.07L327.373 316.826Z" fill="#FFB6B6"/>
<path d="M341.757 302.545L322.574 312.932L337.132 362.327C338.178 365.874 340.052 369.069 342.573 371.601C345.094 374.133 348.176 375.916 351.521 376.779C355.645 377.842 359.975 377.455 363.883 375.675C367.791 373.894 371.073 370.812 373.255 366.875L411.858 295.223C414.594 290.286 415.438 284.386 414.211 278.783C412.984 273.181 409.782 268.32 405.29 265.239C402.874 263.582 400.163 262.495 397.333 262.048C394.504 261.6 391.619 261.803 388.866 262.643C386.113 263.483 383.555 264.942 381.357 266.923C379.16 268.905 377.372 271.365 376.11 274.144L352.548 328.511L341.757 302.545Z" fill="#3F3D56"/>
<path d="M134.963 239.613C154.864 239.613 170.996 222.144 170.996 200.594C170.996 179.044 154.864 161.574 134.963 161.574C115.062 161.574 98.9297 179.044 98.9297 200.594C98.9297 222.144 115.062 239.613 134.963 239.613Z" fill="#A0616A"/>
<path d="M99.365 173.704C102.295 169.428 106.506 166.388 109.727 162.365C111.494 160.157 112.962 157.656 114.949 155.68C118.64 152.009 123.803 150.504 128.812 150.317C134.302 150.164 139.748 151.413 144.709 153.963C149.67 156.513 154.008 160.291 157.37 164.993C159.988 163.331 162.607 161.668 165.225 160.006C166.26 162.954 167.294 165.903 168.329 168.851C169.178 168.052 170.26 167.604 171.385 167.587C172.51 167.57 173.604 167.985 174.473 168.758C175.343 169.531 175.931 170.612 176.135 171.81C176.338 173.008 176.143 174.245 175.585 175.302C176.208 173.217 179.063 172.775 180.637 174.152C182.211 175.53 182.632 177.981 182.376 180.155C182.053 182.539 181.08 184.765 179.58 186.546C178.08 188.327 176.123 189.581 173.959 190.148C170.542 190.973 166.565 190.107 163.831 192.473C161.638 194.37 160.976 197.825 158.739 199.659C155.981 201.919 152.084 200.874 148.657 201.373C142.661 202.248 137.913 208.889 138.634 215.394C138.091 213.341 137.521 211.229 136.29 209.562C135.058 207.894 132.984 206.767 131.096 207.38C127.974 208.393 127.463 213.001 128.22 216.433C130.227 225.537 137.831 240.252 137.831 240.252C127.957 244.469 116.193 240.481 108.575 232.478C100.956 224.474 96.9882 213.141 95.2597 201.801C93.7941 192.184 94.0018 181.532 99.365 173.704Z" fill="#2F2E41"/>
<path d="M464.252 226.146C471.107 209.126 467.223 193.464 458.866 185.155V185.148C455.581 177.175 451.213 171.022 446.214 169.578C443.798 167.897 441.453 165.923 438.851 164.918C437.638 164.427 436.347 164.206 435.054 164.27C433.761 164.333 432.493 164.68 431.326 165.288L429.999 164.904C428.872 161.786 427.551 161.723 426.083 163.774C420.427 160.921 415.331 159.645 410.796 159.645C396.005 159.645 387.257 173.206 384.938 189.599L397.3 193.164L401.597 185.748L399.612 193.833L406.434 195.793C416.819 210.436 404.392 244.213 388.642 263.006C392.391 261.883 396.125 260.934 399.844 260.16L413.36 238.702L404.985 258.235C409.333 257.544 414.88 258.207 420.942 259.539C422.984 256.651 424.06 252.8 423.003 249.368C424.731 252.988 425.922 256.879 426.534 260.899C439.327 264.283 456.779 266.02 466.184 267.303C473.783 264.617 473.804 234.28 464.252 226.146Z" fill="#2F2E41"/>
<path d="M468.711 168.253C473.732 180.428 463.6 185.665 454.318 185.517C445.931 185.384 438.803 179.003 438.375 169.932C438.17 165.576 439.571 161.31 442.27 158.073C444.969 154.835 448.745 152.891 452.768 152.668C461.144 152.205 465.29 159.96 468.711 168.253Z" fill="#2F2E41"/>
<path d="M235.767 366.449L227.496 351.51L254.998 328.916L266.432 315.843C267.918 314.145 269.789 312.898 271.859 312.228C273.929 311.558 276.125 311.488 278.227 312.025C280.33 312.562 282.266 313.687 283.841 315.288C285.416 316.888 286.576 318.909 287.205 321.147C288.136 324.464 287.84 328.043 286.381 331.128C284.921 334.214 282.412 336.564 279.382 337.684L261.614 344.253L235.767 366.449Z" fill="#A0616A"/>
<path d="M241.742 365.956L228.865 377.578L225.392 380.71L224.987 381.072C224.091 381.554 223.189 382.028 222.281 382.496C219.562 383.898 216.81 385.23 214.022 386.493C206.688 389.814 199.163 392.618 191.495 394.885C190.039 395.317 188.576 395.729 187.108 396.119C186.212 396.357 185.31 396.594 184.408 396.817C183.842 396.964 183.268 397.103 182.695 397.236C181.999 397.403 181.303 397.57 180.608 397.724C179.88 397.891 179.152 398.052 178.424 398.205C176.465 396.187 174.906 393.759 173.84 391.068C172.775 388.377 172.226 385.479 172.227 382.551C172.227 382.363 172.227 382.168 172.233 381.972L174.301 324.54L175.216 299.085C175.357 293.329 177.571 287.86 181.386 283.848C185.2 279.836 190.313 277.598 195.63 277.613C196.249 277.613 196.861 277.648 197.466 277.711C197.904 278.325 198.31 278.96 198.703 279.602C199.773 281.318 201.216 284.031 202.916 287.435C203.619 288.838 204.359 290.358 205.139 291.97C205.609 292.939 209.668 306.654 213.617 320.661L211.877 335.29L208.733 361.659L221.63 352.492L230.714 346.033L231.789 347.979L234.592 353.043L240.003 362.81L241.742 365.956Z" fill="#3F3D56"/>
<path d="M234.684 349.54C234.677 350.726 234.652 351.891 234.594 353.042C234.459 356.217 234.119 359.378 233.576 362.501C232.687 367.746 231.1 372.824 228.867 377.576C228.57 378.211 228.255 378.839 227.933 379.453C227.102 379.927 226.258 380.388 225.414 380.848C225.272 380.925 225.13 381.001 224.989 381.071C221.4 383.004 217.746 384.81 214.024 386.491C206.69 389.813 199.165 392.616 191.497 394.883C190.041 395.316 188.578 395.728 187.11 396.118C184.243 396.886 181.348 397.581 178.426 398.204C166.53 400.734 154.435 402.005 142.312 401.999C141.507 401.999 140.708 401.992 139.902 401.985C139.658 401.985 139.413 401.978 139.162 401.971C138.453 401.957 137.719 401.943 136.971 401.922C122.645 401.493 108.412 399.272 94.5572 395.302C93.4556 394.988 92.3583 394.663 91.2653 394.325C80.7328 391.082 70.4882 386.828 60.6529 381.615C49.8432 357.528 51.8724 344.664 49.9141 315.449C53.9339 304.574 121.942 312.254 174.303 324.539C188.514 327.873 201.565 331.55 211.879 335.289C222.534 339.146 230.258 343.067 233.286 346.75C233.993 347.512 234.479 348.482 234.684 349.54Z" fill="#2F2E41"/>
<path opacity="0.2" d="M49.9165 320.451C49.8165 318.643 49.7046 316.775 49.5742 314.829C56.1064 297.166 231.387 328.439 234.344 348.92C234.336 350.798 234.262 352.62 234.137 354.399C226.976 334.184 60.4573 304.462 49.9165 320.451Z" fill="black"/>
</g>
<defs>
<clipPath id="clip0_1878_2331">
<rect width="567" height="402" fill="white"/>
</clipPath>
</defs>
</svg>
